{
	"asset":{
		"generator":"Khronos glTF Blender I/O v4.1.63",
		"version":"2.0"
	},
	"scene":0,
	"scenes":[
		{
			"name":"Scene",
			"nodes":[
				7
			]
		}
	],
	"nodes":[
		{
			"mesh":0,
			"name":"ags_M_0_body_0"
		},
		{
			"mesh":1,
			"name":"ags_M_0_clothes_0"
		},
		{
			"mesh":2,
			"name":"ags_M_0_face_0"
		},
		{
			"mesh":3,
			"name":"ags_M_0_hair_0"
		},
		{
			"children":[
				0,
				1,
				2,
				3
			],
			"name":"ags_M",
			"rotation":[
				-0.70710688829422,
				0,
				0,
				0.7071066498756409
			],
			"scale":[
				100,
				99.99999237060547,
				99.99999237060547
			]
		},
		{
			"children":[
				4
			],
			"name":"RootNode"
		},
		{
			"children":[
				5
			],
			"name":"5d10da0c57594d29be49096275574a9d.fbx",
			"rotation":[
				0.70710688829422,
				0,
				0,
				0.7071066498756409
			],
			"scale":[
				0.009999999776482582,
				0.010000000707805157,
				0.010000000707805157
			]
		},
		{
			"children":[
				6
			],
			"name":"Sketchfab_model",
			"rotation":[
				-0.70710688829422,
				0,
				0,
				0.7071066498756409
			]
		}
	],
	"materials":[
		{
			"doubleSided":true,
			"emissiveFactor":[
				0.4000000059604645,
				0.4000000059604645,
				0.4000000059604645
			],
			"emissiveTexture":{
				"index":0
			},
			"name":"0_body",
			"pbrMetallicRoughness":{
				"baseColorTexture":{
					"index":1
				},
				"metallicFactor":0,
				"roughnessFactor":0.5
			}
		},
		{
			"doubleSided":true,
			"emissiveFactor":[
				0.4000000059604645,
				0.4000000059604645,
				0.4000000059604645
			],
			"emissiveTexture":{
				"index":2
			},
			"name":"0_clothes",
			"pbrMetallicRoughness":{
				"baseColorTexture":{
					"index":3
				},
				"metallicFactor":0,
				"roughnessFactor":0.5
			}
		},
		{
			"doubleSided":true,
			"emissiveFactor":[
				0.4000000059604645,
				0.4000000059604645,
				0.4000000059604645
			],
			"emissiveTexture":{
				"index":4
			},
			"name":"0_face",
			"pbrMetallicRoughness":{
				"baseColorTexture":{
					"index":5
				},
				"metallicFactor":0,
				"roughnessFactor":0.5
			}
		},
		{
			"doubleSided":true,
			"emissiveFactor":[
				0.4000000059604645,
				0.4000000059604645,
				0.4000000059604645
			],
			"emissiveTexture":{
				"index":6
			},
			"name":"0_hair",
			"pbrMetallicRoughness":{
				"baseColorTexture":{
					"index":7
				},
				"metallicFactor":0,
				"roughnessFactor":0.5
			}
		}
	],
	"meshes":[
		{
			"name":"ags_M_0_body_0",
			"primitives":[
				{
					"attributes":{
						"POSITION":0,
						"NORMAL":1,
						"TEXCOORD_0":2
					},
					"indices":3,
					"material":0
				}
			]
		},
		{
			"name":"ags_M_0_clothes_0",
			"primitives":[
				{
					"attributes":{
						"POSITION":4,
						"NORMAL":5,
						"TEXCOORD_0":6
					},
					"indices":7,
					"material":1
				}
			]
		},
		{
			"name":"ags_M_0_face_0",
			"primitives":[
				{
					"attributes":{
						"POSITION":8,
						"NORMAL":9,
						"TEXCOORD_0":10
					},
					"indices":11,
					"material":2
				}
			]
		},
		{
			"name":"ags_M_0_hair_0",
			"primitives":[
				{
					"attributes":{
						"POSITION":12,
						"NORMAL":13,
						"TEXCOORD_0":14
					},
					"indices":15,
					"material":3
				}
			]
		}
	],
	"textures":[
		{
			"sampler":0,
			"source":0
		},
		{
			"sampler":0,
			"source":0
		},
		{
			"sampler":0,
			"source":1
		},
		{
			"sampler":0,
			"source":1
		},
		{
			"sampler":0,
			"source":2
		},
		{
			"sampler":0,
			"source":2
		},
		{
			"sampler":0,
			"source":3
		},
		{
			"sampler":0,
			"source":3
		}
	],
	"images":[
		{
			"mimeType":"image/png",
			"name":"0_body_baseColor",
			"uri":"0_body_baseColor.png"
		},
		{
			"mimeType":"image/png",
			"name":"0_clothes_baseColor",
			"uri":"0_clothes_baseColor.png"
		},
		{
			"mimeType":"image/png",
			"name":"0_face_baseColor",
			"uri":"0_face_baseColor.png"
		},
		{
			"mimeType":"image/png",
			"name":"0_hair_baseColor",
			"uri":"0_hair_baseColor.png"
		}
	],
	"accessors":[
		{
			"bufferView":0,
			"componentType":5126,
			"count":19428,
			"max":[
				0.8278018832206726,
				0.3437269628047943,
				5.517811298370361
			],
			"min":[
				-0.8278020620346069,
				-0.9087896347045898,
				0.03087477758526802
			],
			"type":"VEC3"
		},
		{
			"bufferView":1,
			"componentType":5126,
			"count":19428,
			"type":"VEC3"
		},
		{
			"bufferView":2,
			"componentType":5126,
			"count":19428,
			"type":"VEC2"
		},
		{
			"bufferView":3,
			"componentType":5123,
			"count":105792,
			"type":"SCALAR"
		},
		{
			"bufferView":4,
			"componentType":5126,
			"count":11868,
			"max":[
				0.43819350004196167,
				0.306003212928772,
				5.562265872955322
			],
			"min":[
				-0.43819350004196167,
				-0.5713480114936829,
				0.0004652219358831644
			],
			"type":"VEC3"
		},
		{
			"bufferView":5,
			"componentType":5126,
			"count":11868,
			"type":"VEC3"
		},
		{
			"bufferView":6,
			"componentType":5126,
			"count":11868,
			"type":"VEC2"
		},
		{
			"bufferView":7,
			"componentType":5123,
			"count":65688,
			"type":"SCALAR"
		},
		{
			"bufferView":8,
			"componentType":5126,
			"count":4651,
			"max":[
				0.3363994359970093,
				0.38508325815200806,
				6.439323425292969
			],
			"min":[
				-0.3363994359970093,
				-0.30169838666915894,
				5.507073879241943
			],
			"type":"VEC3"
		},
		{
			"bufferView":9,
			"componentType":5126,
			"count":4651,
			"type":"VEC3"
		},
		{
			"bufferView":10,
			"componentType":5126,
			"count":4651,
			"type":"VEC2"
		},
		{
			"bufferView":11,
			"componentType":5123,
			"count":24972,
			"type":"SCALAR"
		},
		{
			"bufferView":12,
			"componentType":5126,
			"count":12870,
			"max":[
				0.6123111248016357,
				0.5961225032806396,
				6.477557182312012
			],
			"min":[
				-0.6123111248016357,
				-0.3376461863517761,
				5.364393711090088
			],
			"type":"VEC3"
		},
		{
			"bufferView":13,
			"componentType":5126,
			"count":12870,
			"type":"VEC3"
		},
		{
			"bufferView":14,
			"componentType":5126,
			"count":12870,
			"type":"VEC2"
		},
		{
			"bufferView":15,
			"componentType":5123,
			"count":64944,
			"type":"SCALAR"
		}
	],
	"bufferViews":[
		{
			"buffer":0,
			"byteLength":233136,
			"byteOffset":0,
			"target":34962
		},
		{
			"buffer":0,
			"byteLength":233136,
			"byteOffset":233136,
			"target":34962
		},
		{
			"buffer":0,
			"byteLength":155424,
			"byteOffset":466272,
			"target":34962
		},
		{
			"buffer":0,
			"byteLength":211584,
			"byteOffset":621696,
			"target":34963
		},
		{
			"buffer":0,
			"byteLength":142416,
			"byteOffset":833280,
			"target":34962
		},
		{
			"buffer":0,
			"byteLength":142416,
			"byteOffset":975696,
			"target":34962
		},
		{
			"buffer":0,
			"byteLength":94944,
			"byteOffset":1118112,
			"target":34962
		},
		{
			"buffer":0,
			"byteLength":131376,
			"byteOffset":1213056,
			"target":34963
		},
		{
			"buffer":0,
			"byteLength":55812,
			"byteOffset":1344432,
			"target":34962
		},
		{
			"buffer":0,
			"byteLength":55812,
			"byteOffset":1400244,
			"target":34962
		},
		{
			"buffer":0,
			"byteLength":37208,
			"byteOffset":1456056,
			"target":34962
		},
		{
			"buffer":0,
			"byteLength":49944,
			"byteOffset":1493264,
			"target":34963
		},
		{
			"buffer":0,
			"byteLength":154440,
			"byteOffset":1543208,
			"target":34962
		},
		{
			"buffer":0,
			"byteLength":154440,
			"byteOffset":1697648,
			"target":34962
		},
		{
			"buffer":0,
			"byteLength":102960,
			"byteOffset":1852088,
			"target":34962
		},
		{
			"buffer":0,
			"byteLength":129888,
			"byteOffset":1955048,
			"target":34963
		}
	],
	"samplers":[
		{
			"magFilter":9729,
			"minFilter":9987
		}
	],
	"buffers":[
		{
			"byteLength":2084936,
			"uri":"agirl.bin"
		}
	]
}
